HIERARCHY
ROOT Hips
{
  OFFSET 53.0784 93.7608 8.36889
  CHANNELS 6 Xposition Yposition Zposition Zrotation Xrotation Yrotation
  JOINT spine
  {
    OFFSET 0 7.4756 0.429885
    CHANNELS 3 Zrotation Xrotation Yrotation
    JOINT spine1
    {
      OFFSET 0 9.92301 0
      CHANNELS 3 Zrotation Xrotation Yrotation
      JOINT spine2
      {
        OFFSET 0 9.50804 0
        CHANNELS 3 Zrotation Xrotation Yrotation
        JOINT Neck
        {
          OFFSET 0 24.4111 1.16384
          CHANNELS 3 Zrotation Xrotation Yrotation
          JOINT Head
          {
            OFFSET 0 7.37523 0
            CHANNELS 3 Zrotation Xrotation Yrotation
            End Site
            {
              OFFSET 0 17.8522 -5.88741
            }
          }
        }
        JOINT RightShoulder
        {
          OFFSET -4.00356 10.2679 -0.557468
          CHANNELS 3 Zrotation Xrotation Yrotation
          JOINT RightArm
          {
            OFFSET 0 13.4673 0
            CHANNELS 3 Zrotation Xrotation Yrotation
            JOINT RightArmRoll
            {
              OFFSET 0 6.79858 0
              CHANNELS 3 Zrotation Xrotation Yrotation
              JOINT RightForeArm
              {
                OFFSET 0 19.8018 0
                CHANNELS 3 Zrotation Xrotation Yrotation
                JOINT RightForeArmRoll
                {
                  OFFSET 0 7.62905 0
                  CHANNELS 3 Zrotation Xrotation Yrotation
                  JOINT RightHand
                  {
                    OFFSET 0 15.3098 0
                    CHANNELS 3 Zrotation Xrotation Yrotation
                    End Site
                    {
                      OFFSET 0 0 0
                    }
                  }
                }
              }
            }
          }
        }
        JOINT LeftShoulder
        {
          OFFSET 4.00356 10.2679 -0.557468
          CHANNELS 3 Zrotation Xrotation Yrotation
          JOINT LeftArm
          {
            OFFSET 0 13.4673 0
            CHANNELS 3 Zrotation Xrotation Yrotation
            JOINT LeftArmRoll
            {
              OFFSET 0 6.79858 0
              CHANNELS 3 Zrotation Xrotation Yrotation
              JOINT LeftForeArm
              {
                OFFSET 0 19.8018 0
                CHANNELS 3 Zrotation Xrotation Yrotation
                JOINT LeftForeArmRoll
                {
                  OFFSET 0 7.62906 0
                  CHANNELS 3 Zrotation Xrotation Yrotation
                  JOINT LeftHand
                  {
                    OFFSET 0 15.3098 0
                    CHANNELS 3 Zrotation Xrotation Yrotation
                    End Site
                    {
                      OFFSET 0 0 0
                    }
                  }
                }
              }
            }
          }
        }
      }
    }
  }
  JOINT RightUpLeg
  {
    OFFSET -6.62609 -1.21505 -1.01927
    CHANNELS 3 Zrotation Xrotation Yrotation
    JOINT RightUpLegRoll
    {
      OFFSET 0 17.9517 0
      CHANNELS 3 Zrotation Xrotation Yrotation
      JOINT RightLeg
      {
        OFFSET 0 -22.2304 0
        CHANNELS 3 Zrotation Xrotation Yrotation
        JOINT RightLegRoll
        {
          OFFSET 0 22.3032 0
          CHANNELS 3 Zrotation Xrotation Yrotation
          JOINT RightFoot
          {
            OFFSET 0 18.5636 0
            CHANNELS 3 Zrotation Xrotation Yrotation
            JOINT RightToeBase
            {
              OFFSET 0 15.5183 0
              CHANNELS 3 Zrotation Xrotation Yrotation
              End Site
              {
                OFFSET 0.00657761 7.51538 -0.866263
              }
            }
          }
        }
      }
    }
  }
  JOINT LeftUpLeg
  {
    OFFSET 6.62609 -1.21505 -1.01927
    CHANNELS 3 Zrotation Xrotation Yrotation
    JOINT LeftUpLegRoll
    {
      OFFSET 0 17.9518 0
      CHANNELS 3 Zrotation Xrotation Yrotation
      JOINT LeftLeg
      {
        OFFSET 0 22.2303 0
        CHANNELS 3 Zrotation Xrotation Yrotation
        JOINT LeftLegRoll
        {
          OFFSET 0 22.5093 0
          CHANNELS 3 Zrotation Xrotation Yrotation
          JOINT LeftFoot
          {
            OFFSET 0 18.3575 0
            CHANNELS 3 Zrotation Xrotation Yrotation
            JOINT LeftToeBase
            {
              OFFSET 0 15.5183 0
              CHANNELS 3 Zrotation Xrotation Yrotation
              End Site
              {
                OFFSET -0.029478 7.51539 -0.866263
              }
            }
          }
        }
      }
    }
  }
}
MOTION
Frames: 6
Frame Time: 0.00208333
53.9227 93.7254 7.40051 -0.720438 -5.82862 -1.20302 0.387279 0.0150718 0.00891366 0.764607 4.03274 -0.0299846 0.766241 5.67773 -0.0428667 -10.4857 -5.00534 -2.48889 11.7234 4.42451 -2.97794 65.8218 -1.24512 -1.52163 105.97 2.01669 27.4935 -1.80596e-006 -1.09954e-005 -1.00457e-005 2.22673 3.38602 -1.42047 3.00237e-005 -6.36163e-007 -3.0042 8.02998 -4.9514 0.697648 -75.4501 -1.25869 2.4724 -96.1013 6.01869 -23.5479 3.14523e-009 4.66438e-007 3.36955e-006 -3.58561 7.72582 1.17763 -7.34113e-006 -5.79623e-007 3.00745 -8.02977 -4.95142 -0.697679 -178.721 -1.06276 -1.1126 180 7.01543e-015 178.906 177.691 9.81755 179.75 -7.80079e-007 -1.62304e-006 0.154454 -19.3283 68.9431 20.3471 8.13649 25.2327 -3.48774 -179.436 -2.35842 3.06915 4.54188e-006 -4.6773e-006 -1.0602 -2.20387 -6.52945 0.0619321 -6.3847e-007 2.66958e-006 -0.0716072 18.4755 67.8963 -19.4187 -8.13649 25.2327 3.48774 
53.9218 93.7271 7.38387 -0.722547 -5.78958 -1.20277 0.387401 0.0167396 0.00641865 0.765942 4.03606 -0.0352158 0.767608 5.68105 -0.0481171 -10.5024 -5.09817 -2.49118 11.7176 4.43618 -2.97441 65.8573 -1.23335 -1.51906 105.928 2.15584 27.5675 -1.80596e-006 -1.09954e-005 -1.00457e-005 2.14944 3.256 -1.4154 3.00237e-005 -6.36163e-007 -3.00418 8.02998 -4.9514 0.697648 -75.4381 -1.26943 2.47594 -96.074 6.15683 -23.5237 3.14526e-009 4.66438e-007 3.36955e-006 -3.57698 7.59541 1.17018 -7.34113e-006 -5.79623e-007 3.00745 -8.02977 -4.95142 -0.697679 -178.714 -1.00772 -1.12706 180 7.01543e-015 178.907 177.696 9.82196 179.749 -7.80079e-007 -1.62304e-006 0.154467 -19.3301 68.9451 20.349 8.13649 25.2327 -3.48774 -179.432 -2.30038 3.07069 4.54188e-006 -4.6773e-006 -1.05944 -2.20385 -6.53825 0.0616738 -6.3847e-007 2.66958e-006 -0.0711046 18.475 67.8957 -19.4179 -8.13649 25.2327 3.48774 
53.9376 93.7199 7.3533 -0.724681 -5.75017 -1.20194 0.387583 0.0184432 0.00367519 0.767444 4.03945 -0.0409641 0.769149 5.68444 -0.0538875 -10.5213 -5.19197 -2.49324 11.7129 4.44726 -2.9706 65.8912 -1.22122 -1.51613 105.89 2.29346 27.6431 -1.80596e-006 -1.09954e-005 -1.00457e-005 2.07092 3.12462 -1.41022 3.00237e-005 -6.36163e-007 -3.00415 8.02998 -4.9514 0.697648 -75.4272 -1.28038 2.47967 -96.0457 6.29542 -23.4995 3.14526e-009 4.66438e-007 3.36955e-006 -3.56873 7.46113 1.16255 -7.34113e-006 -5.79623e-007 3.00745 -8.02977 -4.95142 -0.697679 -178.707 -0.951858 -1.1417 180 7.01543e-015 178.907 177.701 9.82706 179.749 -7.80079e-007 -1.62304e-006 0.154486 -19.3318 68.9472 20.3509 8.13649 25.2327 -3.48774 -179.428 -2.2411 3.07231 4.54188e-006 -4.6773e-006 -1.0587 -2.2037 -6.54813 0.0614084 -6.3847e-007 2.66958e-006 -0.0705935 18.4744 67.8949 -19.417 -8.13649 25.2327 3.48774 
53.9297 93.7181 7.33595 -0.726834 -5.71052 -1.2007 0.387806 0.0201719 0.000757815 0.769064 4.04289 -0.0470744 0.770811 5.68787 -0.0600219 -10.5417 -5.28645 -2.49514 11.7092 4.45791 -2.96659 65.9238 -1.20885 -1.51293 105.855 2.42995 27.72 -1.80596e-006 -1.09954e-005 -1.00457e-005 1.99152 2.99226 -1.40495 3.00237e-005 -6.36163e-007 -3.00411 8.02998 -4.9514 0.697648 -75.4171 -1.29146 2.48352 -96.0169 6.43435 -23.4754 3.14527e-009 4.66438e-007 3.36955e-006 -3.56075 7.32416 1.15479 -7.34113e-006 -5.79623e-007 3.00745 -8.02977 -4.95142 -0.697679 -178.7 -0.895435 -1.15645 180 7.01543e-015 178.908 177.706 9.83262 179.748 -7.80079e-007 -1.62304e-006 0.154509 -19.3336 68.9492 20.3528 8.13649 25.2327 -3.48774 -179.425 -2.18097 3.074 4.54188e-006 -4.6773e-006 -1.05796 -2.20344 -6.55879 0.0611379 -6.3847e-007 2.66958e-006 -0.0700765 18.4736 67.894 -19.4159 -8.13649 25.2327 3.48774 
53.9147 93.7246 7.31922 -0.728999 -5.67071 -1.19922 0.388054 0.0219148 -0.00225894 0.770752 4.04635 -0.0533915 0.772542 5.69134 -0.0663643 -10.563 -5.3813 -2.49695 11.7059 4.46833 -2.96248 65.9558 -1.19632 -1.50959 105.82 2.56571 27.7976 -1.80596e-006 -1.09954e-005 -1.00457e-005 1.91165 2.85936 -1.39964 3.00237e-005 -6.36163e-007 -3.00407 8.02998 -4.9514 0.697648 -75.4073 -1.30262 2.48745 -95.9878 6.5735 -23.4514 3.14525e-009 4.66438e-007 3.36955e-006 -3.55295 7.18564 1.14696 -7.34113e-006 -5.79623e-007 3.00745 -8.02977 -4.95142 -0.697679 -178.693 -0.838688 -1.17127 180 7.01544e-015 178.909 177.711 9.83845 179.748 -7.80079e-007 -1.62304e-006 0.154534 -19.3353 68.9513 20.3547 8.13649 25.2327 -3.48774 -179.421 -2.12034 3.07573 4.54188e-006 -4.6773e-006 -1.05722 -2.20312 -6.56988 0.0608646 -6.3847e-007 2.66958e-006 -0.069556 18.4728 67.893 -19.4148 -8.13649 25.2327 3.48774 
53.9124 93.7173 7.29711 -0.731169 -5.63087 -1.1977 0.388308 0.0236614 -0.00530054 0.772458 4.04982 -0.0597605 0.774291 5.69481 -0.0727587 -10.5845 -5.47626 -2.49875 11.7028 4.47869 -2.95834 65.9876 -1.18377 -1.50622 105.786 2.70114 27.8756 -1.80596e-006 -1.09954e-005 -1.00457e-005 1.83168 2.72633 -1.39432 3.00237e-005 -6.36163e-007 -3.00403 8.02998 -4.9514 0.697648 -75.3977 -1.31381 2.49139 -95.9587 6.71274 -23.4275 3.14527e-009 4.66438e-007 3.36955e-006 -3.54522 7.04673 1.13913 -7.34113e-006 -5.79623e-007 3.00745 -8.02977 -4.95142 -0.697679 -178.686 -0.78186 -1.18611 180 7.01544e-015 178.909 177.716 9.84434 179.748 -7.80079e-007 -1.62304e-006 0.154561 -19.3371 68.9534 20.3567 8.13649 25.2327 -3.48774 -179.417 -2.05959 3.07747 4.54188e-006 -4.6773e-006 -1.05649 -2.20278 -6.58109 0.0605906 -6.3847e-007 2.66958e-006 -0.0690347 18.472 67.892 -19.4136 -8.13649 25.2327 3.48774 
